<svg width="1198" height="139" viewBox="0 0 1198 139" fill="none" xmlns="http://www.w3.org/2000/svg">
<path d="M0.856445 139L6.55645 4.25195L46.6844 1.05995L83.1644 91.348L127.624 4.25195L160.684 1.05995V139H116.908L120.784 78.352L94.1085 137.632L68.5724 138.544L41.4404 75.844L38.9324 139H0.856445Z" fill="white"/>
<path d="M298.619 69.688C298.619 81.696 296.719 92.2599 292.919 101.38C289.271 110.348 284.939 117.188 279.923 121.9C274.907 126.46 269.131 130.184 262.595 133.072C256.059 135.808 250.663 137.48 246.407 138.088C242.151 138.696 238.123 139 234.323 139C215.931 139 200.959 132.54 189.407 119.62C177.855 106.548 172.079 89.904 172.079 69.688C172.079 57.8319 173.903 47.42 177.551 38.452C181.199 29.484 185.531 22.72 190.547 18.1599C195.563 13.6 201.339 9.95195 207.875 7.21595C214.411 4.32795 219.807 2.57995 224.063 1.97195C228.319 1.36395 232.347 1.05995 236.147 1.05995C239.491 1.05995 243.215 1.36395 247.319 1.97195C251.423 2.57995 256.667 4.32795 263.051 7.21595C269.587 9.95195 275.287 13.6 280.151 18.1599C285.167 22.72 289.499 29.484 293.147 38.452C296.795 47.42 298.619 57.8319 298.619 69.688ZM216.767 67.408C216.767 72.2719 216.919 76.452 217.223 79.948C217.679 83.4439 218.439 87.32 219.503 91.576C220.719 95.832 222.619 99.176 225.203 101.608C227.939 103.888 231.283 105.028 235.235 105.028C248.307 105.028 254.843 92.868 254.843 68.548C254.843 65.5079 254.615 62.544 254.159 59.656C253.855 56.768 253.095 53.5 251.879 49.8519C250.663 46.2039 248.687 43.3159 245.951 41.188C243.215 38.9079 239.795 37.7679 235.691 37.7679C231.739 37.7679 228.395 38.8319 225.659 40.96C222.923 43.088 220.947 45.9 219.731 49.396C218.515 52.892 217.679 56.084 217.223 58.972C216.919 61.708 216.767 64.52 216.767 67.408Z" fill="white"/>
<path d="M311.95 7.44395C330.494 3.18795 345.542 1.05995 357.094 1.05995C374.118 1.05995 387.19 4.93595 396.31 12.688C405.582 20.44 410.218 32.2199 410.218 48.028C410.218 55.932 408.622 62.8479 405.43 68.7759C402.238 74.5519 398.514 78.8839 394.258 81.7719C390.154 84.5079 385.366 86.712 379.894 88.3839C374.422 90.056 370.166 91.044 367.126 91.348C364.238 91.652 361.502 91.804 358.918 91.804H347.974L352.534 139H310.126C311.494 134.136 312.178 106.016 312.178 54.64L311.95 7.44395ZM343.642 66.0399C345.314 66.3439 347.29 66.4959 349.57 66.4959C353.218 66.4959 356.562 66.116 359.602 65.3559C362.794 64.5959 365.834 62.772 368.722 59.884C371.61 56.844 373.054 52.816 373.054 47.8C373.054 35.944 366.974 30.016 354.814 30.016C351.622 30.016 347.898 30.548 343.642 31.612V66.0399Z" fill="white"/>
<path d="M548.217 69.688C548.217 81.696 546.317 92.2599 542.517 101.38C538.869 110.348 534.537 117.188 529.521 121.9C524.505 126.46 518.729 130.184 512.193 133.072C505.657 135.808 500.261 137.48 496.005 138.088C491.749 138.696 487.721 139 483.921 139C465.529 139 450.557 132.54 439.005 119.62C427.453 106.548 421.677 89.904 421.677 69.688C421.677 57.8319 423.501 47.42 427.149 38.452C430.797 29.484 435.129 22.72 440.145 18.1599C445.161 13.6 450.937 9.95195 457.473 7.21595C464.009 4.32795 469.405 2.57995 473.661 1.97195C477.917 1.36395 481.945 1.05995 485.745 1.05995C489.089 1.05995 492.813 1.36395 496.917 1.97195C501.021 2.57995 506.265 4.32795 512.649 7.21595C519.185 9.95195 524.885 13.6 529.749 18.1599C534.765 22.72 539.097 29.484 542.745 38.452C546.393 47.42 548.217 57.8319 548.217 69.688ZM466.365 67.408C466.365 72.2719 466.517 76.452 466.821 79.948C467.277 83.4439 468.037 87.32 469.101 91.576C470.317 95.832 472.217 99.176 474.801 101.608C477.537 103.888 480.881 105.028 484.833 105.028C497.905 105.028 504.441 92.868 504.441 68.548C504.441 65.5079 504.213 62.544 503.757 59.656C503.453 56.768 502.693 53.5 501.477 49.8519C500.261 46.2039 498.285 43.3159 495.549 41.188C492.813 38.9079 489.393 37.7679 485.289 37.7679C481.337 37.7679 477.993 38.8319 475.257 40.96C472.521 43.088 470.545 45.9 469.329 49.396C468.113 52.892 467.277 56.084 466.821 58.972C466.517 61.708 466.365 64.52 466.365 67.408Z" fill="white"/>
<path d="M702.68 86.56C705.264 89.296 709.52 95.072 715.448 103.888C721.376 112.552 726.696 120.608 731.408 128.056L738.248 139H691.964L668.252 96.364L665.972 139H624.248L622.424 96.592L598.94 139H552.656C570.44 110.12 582.296 92.64 588.224 86.56C585.488 82.3039 582.068 76.832 577.964 70.144C573.86 63.456 567.932 52.664 560.18 37.7679C552.58 22.8719 547.868 11.3959 546.044 3.33995L592.784 1.05995C597.8 14.892 607.376 38.908 621.512 73.108L617.18 4.70794L673.268 0.147949L669.392 72.652C682.768 42.252 692.192 19.452 697.664 4.25195L744.86 1.97195C743.036 10.0279 738.628 21.1239 731.636 35.26C724.644 49.244 718.032 61.328 711.8 71.512L702.68 86.56Z" fill="white"/>
<path d="M739.901 139L737.849 6.75995L823.349 1.05995V35.0319L777.521 35.944V56.0079L820.613 54.4119L821.981 87.016H779.573V108.676L827.453 104.8V139H739.901Z" fill="white"/>
<path d="M917.367 139C915.999 128.056 915.315 111.032 915.315 87.928H879.747V139H838.935V7.21595L877.239 3.11195V59.428C887.727 59.428 900.571 58.972 915.771 58.06L917.367 4.93596L957.951 0.831954V139H917.367Z" fill="white"/>
<path d="M1095.95 69.688C1095.95 81.696 1094.05 92.2599 1090.25 101.38C1086.6 110.348 1082.27 117.188 1077.26 121.9C1072.24 126.46 1066.46 130.184 1059.93 133.072C1053.39 135.808 1048 137.48 1043.74 138.088C1039.48 138.696 1035.46 139 1031.66 139C1013.26 139 998.291 132.54 986.739 119.62C975.187 106.548 969.411 89.904 969.411 69.688C969.411 57.8319 971.235 47.42 974.883 38.452C978.531 29.484 982.863 22.72 987.879 18.1599C992.895 13.6 998.671 9.95195 1005.21 7.21595C1011.74 4.32795 1017.14 2.57995 1021.4 1.97195C1025.65 1.36395 1029.68 1.05995 1033.48 1.05995C1036.82 1.05995 1040.55 1.36395 1044.65 1.97195C1048.76 2.57995 1054 4.32795 1060.38 7.21595C1066.92 9.95195 1072.62 13.6 1077.48 18.1599C1082.5 22.72 1086.83 29.484 1090.48 38.452C1094.13 47.42 1095.95 57.8319 1095.95 69.688ZM1014.1 67.408C1014.1 72.2719 1014.25 76.452 1014.56 79.948C1015.01 83.4439 1015.77 87.32 1016.84 91.576C1018.05 95.832 1019.95 99.176 1022.54 101.608C1025.27 103.888 1028.62 105.028 1032.57 105.028C1045.64 105.028 1052.18 92.868 1052.18 68.548C1052.18 65.5079 1051.95 62.544 1051.49 59.656C1051.19 56.768 1050.43 53.5 1049.21 49.8519C1048 46.2039 1046.02 43.3159 1043.28 41.188C1040.55 38.9079 1037.13 37.7679 1033.02 37.7679C1029.07 37.7679 1025.73 38.8319 1022.99 40.96C1020.26 43.088 1018.28 45.9 1017.06 49.396C1015.85 52.892 1015.01 56.084 1014.56 58.972C1014.25 61.708 1014.1 64.52 1014.1 67.408Z" fill="white"/>
<path d="M1109.51 139L1107.46 6.75995L1192.96 1.05995V35.0319L1147.13 35.944V56.0079L1190.22 54.4119L1191.59 87.016H1149.18V108.676L1197.06 104.8V139H1109.51Z" fill="white"/>
</svg>
